if (_typeface_js && _typeface_js.loadFace) _typeface_js.loadFace({"glyphs":{"S":{"x_min":43.0625,"x_max":725.015625,"ha":797,"o":"m 719 907 b 437 1008 643 979 540 1008 b 75 711 255 1008 75 914 b 541 268 75 359 541 483 b 369 133 541 177 450 133 b 175 236 291 133 218 170 l 43 108 b 365 -25 123 12 243 -25 b 725 289 558 -25 725 77 b 258 723 725 639 258 526 b 419 850 258 814 338 850 b 591 772 487 850 554 825 l 719 907 "},"¦":{"x_min":83.328125,"x_max":225,"ha":308,"o":"m 83 937 l 83 451 l 225 451 l 225 937 l 83 937 m 83 243 l 83 -243 l 225 -243 l 225 243 l 83 243 "},"/":{"x_min":-12,"x_max":537,"ha":540,"o":"m 537 1008 l 421 1053 l -12 -25 l 103 -67 l 537 1008 "},"y":{"x_min":4,"x_max":717,"ha":721,"o":"m 288 -5 l 256 -84 b 124 -183 229 -154 206 -183 b 40 -166 95 -183 66 -176 l 19 -316 b 147 -333 60 -327 104 -333 b 401 -143 294 -333 352 -268 l 717 667 l 543 667 l 376 204 l 373 204 l 187 667 l 4 667 l 288 -5 "},"Ž":{"x_min":48.890625,"x_max":800.28125,"ha":849,"o":"m 48 0 l 800 0 l 800 158 l 262 158 l 791 825 l 791 983 l 57 983 l 57 825 l 573 825 l 48 158 l 48 0 m 173 1250 l 331 1050 l 516 1050 l 676 1250 l 523 1250 l 427 1125 l 331 1250 l 173 1250 "},"Á":{"x_min":0,"x_max":1003,"ha":1003,"o":"m 0 0 l 195 0 l 284 225 l 711 225 l 802 0 l 1003 0 l 579 983 l 427 983 l 0 0 m 344 375 l 498 775 l 650 375 l 344 375 m 435 1050 l 566 1050 l 761 1250 l 572 1250 l 435 1050 "},"g":{"x_min":61.03125,"x_max":780.484375,"ha":875,"o":"m 622 667 l 622 566 l 619 566 b 390 683 570 647 483 683 b 61 333 184 683 61 530 b 392 -8 61 144 192 -8 b 611 88 476 -8 562 23 l 613 88 l 613 40 b 402 -183 613 -91 563 -183 b 173 -87 309 -183 240 -148 l 73 -223 b 404 -333 167 -307 280 -333 b 780 59 663 -333 780 -180 l 780 667 l 622 667 m 424 533 b 622 337 545 533 622 453 b 423 141 622 226 547 141 b 227 334 311 141 227 229 b 424 533 227 453 308 533 "},"²":{"x_min":43.0625,"x_max":491.671875,"ha":535,"o":"m 43 401 l 491 401 l 491 518 l 216 518 l 216 521 l 411 671 b 491 822 463 711 491 761 b 279 1000 491 940 401 1000 b 52 808 152 1000 61 940 l 186 800 b 272 875 188 842 222 875 b 350 821 313 875 350 860 b 293 744 350 793 318 767 l 43 533 l 43 401 "},"–":{"x_min":0,"x_max":694.453125,"ha":694,"o":"m 694 408 l 0 408 l 0 275 l 694 275 l 694 408 "},"ë":{"x_min":61.328125,"x_max":735.953125,"ha":797,"o":"m 735 275 l 735 320 b 423 683 735 553 609 683 b 61 333 222 683 61 543 b 423 -16 61 123 222 -16 b 705 116 529 -16 627 20 l 586 207 b 407 116 544 155 490 116 b 228 275 314 116 239 176 l 735 275 m 228 400 b 400 558 240 496 301 558 b 569 400 504 558 568 497 l 228 400 m 148 883 b 254 783 148 830 193 783 b 362 883 315 783 362 826 b 254 983 362 940 315 983 b 148 883 193 983 148 936 m 434 883 b 540 783 434 830 479 783 b 648 883 601 783 648 826 b 540 983 648 940 601 983 b 434 883 479 983 434 936 "},"ƒ":{"x_min":-6,"x_max":775,"ha":822,"o":"m 666 591 l 497 591 l 522 708 b 634 850 535 774 552 850 b 711 828 661 850 687 842 l 775 957 b 612 1000 723 985 672 1000 b 361 746 449 1000 389 885 l 331 591 l 149 591 l 149 466 l 306 466 l 232 93 b 121 -51 215 9 193 -51 b 56 -31 99 -51 74 -44 l -6 -159 b 135 -193 37 -182 87 -193 b 395 66 280 -193 360 -109 l 474 466 l 666 466 l 666 591 "},"Î":{"x_min":-60,"x_max":446,"ha":386,"o":"m 105 0 l 280 0 l 280 983 l 105 983 l 105 0 m 446 1050 l 287 1250 l 99 1250 l -60 1050 l 95 1050 l 191 1175 l 287 1050 l 446 1050 "},"e":{"x_min":61.328125,"x_max":735.953125,"ha":797,"o":"m 735 275 l 735 320 b 423 683 735 553 609 683 b 61 333 222 683 61 543 b 423 -16 61 123 222 -16 b 705 116 529 -16 627 20 l 586 207 b 407 116 544 155 490 116 b 228 275 314 116 239 176 l 735 275 m 228 400 b 400 558 240 496 301 558 b 569 400 504 558 568 497 l 228 400 "},"Ã":{"x_min":0,"x_max":1003,"ha":1003,"o":"m 0 0 l 195 0 l 284 225 l 711 225 l 802 0 l 1003 0 l 579 983 l 427 983 l 0 0 m 344 375 l 498 775 l 650 375 l 344 375 m 337 1056 b 401 1115 347 1086 364 1115 b 601 1063 445 1115 526 1063 b 757 1239 705 1063 741 1150 l 665 1239 b 601 1181 655 1208 638 1181 b 401 1232 557 1181 476 1232 b 245 1056 297 1232 261 1145 l 337 1056 "},"J":{"x_min":6.9375,"x_max":591.671875,"ha":694,"o":"m 591 983 l 416 983 l 416 323 b 287 133 416 205 387 133 b 170 240 226 133 181 176 l 6 201 b 295 -25 37 45 141 -25 b 591 272 493 -25 591 115 l 591 983 "},"»":{"x_min":53,"x_max":680,"ha":721,"o":"m 364 101 l 468 31 l 680 342 l 468 656 l 363 585 l 524 342 l 364 101 m 54 101 l 158 31 l 369 342 l 158 656 l 53 585 l 214 342 l 54 101 "},"©":{"x_min":38.890625,"x_max":1072.21875,"ha":1111,"o":"m 686 412 b 575 315 681 340 633 315 b 426 498 477 315 426 396 b 577 671 426 598 470 671 b 686 586 627 671 673 650 l 816 586 b 566 787 795 721 691 787 b 293 496 388 787 293 667 b 569 198 293 329 394 198 b 816 412 690 198 797 273 l 686 412 m 38 491 b 555 -25 38 207 270 -25 b 1072 491 840 -25 1072 207 b 555 1008 1072 776 840 1008 b 38 491 270 1008 38 776 m 172 491 b 555 892 172 715 340 892 b 938 491 770 892 938 715 b 555 91 938 268 770 91 b 172 491 340 91 172 268 "},"˘":{"x_min":-56.21875,"x_max":416,"ha":361,"o":"m -56 983 b 178 783 -47 844 46 783 b 416 983 310 783 402 847 l 324 983 b 179 892 304 906 259 892 b 36 983 109 892 49 914 l -56 983 "},"ò":{"x_min":60.609375,"x_max":785.609375,"ha":847,"o":"m 60 333 b 423 -16 60 123 221 -16 b 785 333 624 -16 785 123 b 423 683 785 543 624 683 b 60 333 221 683 60 543 m 227 333 b 423 533 227 437 300 533 b 618 333 545 533 618 437 b 423 133 618 229 545 133 b 227 333 300 133 227 229 m 350 983 l 162 983 l 357 783 l 488 783 l 350 983 "},"^":{"x_min":95.671875,"x_max":829,"ha":925,"o":"m 259 476 l 460 809 l 665 476 l 829 476 l 519 984 l 405 984 l 95 476 l 259 476 "},"«":{"x_min":42,"x_max":669,"ha":721,"o":"m 357 585 l 253 656 l 42 344 l 253 31 l 358 101 l 197 344 l 357 585 m 667 585 l 563 656 l 352 344 l 563 31 l 669 101 l 507 344 l 667 585 "},"D":{"x_min":109.71875,"x_max":997.21875,"ha":1054,"o":"m 109 0 l 476 0 b 997 491 712 0 997 155 b 497 983 997 825 755 983 l 109 983 l 109 0 m 284 158 l 284 825 l 444 825 b 813 491 658 825 813 730 b 415 158 813 252 634 158 l 284 158 "},"ł":{"x_min":1.390625,"x_max":359.71875,"ha":361,"o":"m 97 0 l 263 0 l 263 548 l 359 643 l 359 792 l 263 696 l 263 1050 l 97 1050 l 97 530 l 1 434 l 1 283 l 97 379 l 97 0 "},"ÿ":{"x_min":4,"x_max":717,"ha":721,"o":"m 289 -5 l 257 -84 b 125 -183 229 -154 207 -183 b 40 -166 96 -183 66 -176 l 19 -316 b 147 -333 60 -327 104 -333 b 401 -143 294 -333 352 -268 l 717 667 l 543 667 l 377 204 l 374 204 l 188 667 l 4 667 l 289 -5 m 111 883 b 217 783 111 830 155 783 b 325 883 278 783 325 826 b 217 983 325 940 278 983 b 111 883 155 983 111 936 m 398 883 b 503 783 398 830 442 783 b 611 883 564 783 611 826 b 503 983 611 940 564 983 b 398 883 442 983 398 936 "},"Ł":{"x_min":12.5,"x_max":702.78125,"ha":721,"o":"m 109 0 l 702 0 l 702 158 l 284 158 l 284 414 l 570 667 l 570 818 l 284 566 l 284 983 l 109 983 l 109 412 l 12 326 l 12 173 l 109 259 l 109 0 "},"í":{"x_min":97.21875,"x_max":424.359375,"ha":361,"o":"m 97 0 l 263 0 l 263 667 l 97 667 l 97 0 m 97 783 l 228 783 l 424 983 l 235 983 l 97 783 "},"ˆ":{"x_min":-72,"x_max":434,"ha":361,"o":"m 434 783 l 275 983 l 87 983 l -72 783 l 83 783 l 179 908 l 275 783 l 434 783 "},"w":{"x_min":3.78125,"x_max":1101,"ha":1106,"o":"m 235 0 l 407 0 l 548 455 l 551 455 l 709 0 l 874 0 l 1101 667 l 932 667 l 794 200 l 791 200 l 646 667 l 466 667 l 331 200 l 328 200 l 184 667 l 3 667 l 235 0 "},"$":{"x_min":43.34375,"x_max":760,"ha":822,"o":"m 441 1091 l 366 1091 l 366 998 b 66 712 211 983 66 877 b 360 427 66 529 204 470 l 366 426 l 366 133 b 169 235 290 139 214 173 l 43 106 b 366 -17 128 17 246 -18 l 366 -115 l 441 -115 l 441 -15 b 760 288 618 2 760 105 b 447 570 760 479 603 529 l 441 572 l 441 850 b 611 775 505 850 568 820 l 726 904 b 454 1000 655 966 548 1000 l 441 1000 l 441 1091 m 366 593 b 241 720 300 622 241 636 b 366 847 241 791 301 836 l 366 593 m 441 404 b 585 276 507 381 585 358 b 441 133 585 194 518 148 l 441 404 "},"\\":{"x_min":4,"x_max":553,"ha":540,"o":"m 4 1008 l 437 -66 l 553 -25 l 119 1053 l 4 1008 "},"Ì":{"x_min":-68,"x_max":280.609375,"ha":386,"o":"m 105 0 l 280 0 l 280 983 l 105 983 l 105 0 m 120 1250 l -68 1250 l 127 1050 l 258 1050 l 120 1250 "},"µ":{"x_min":94.4375,"x_max":702.78125,"ha":797,"o":"m 94 666 l 94 -317 l 261 -317 l 261 -7 b 337 -17 283 -14 308 -17 b 541 106 448 -17 511 39 l 544 106 l 544 0 l 702 0 l 702 666 l 536 666 l 536 302 b 383 133 536 213 493 133 b 261 329 266 133 261 255 l 261 666 l 94 666 "},"Ç":{"x_min":56.9375,"x_max":943.0625,"ha":951,"o":"m 920 853 b 576 1008 823 965 709 1008 b 56 487 273 1008 56 803 b 504 -20 56 205 238 9 l 433 -125 l 470 -159 b 522 -150 487 -154 504 -150 b 593 -200 551 -150 593 -163 b 513 -258 593 -245 544 -258 b 400 -230 473 -258 434 -248 l 369 -294 b 516 -333 413 -319 465 -333 b 709 -198 600 -333 709 -300 b 541 -83 709 -91 623 -83 l 581 -25 b 943 150 725 -23 855 29 l 798 252 b 577 133 733 169 656 133 b 240 498 375 133 240 289 b 577 850 240 694 375 850 b 784 753 645 850 712 829 l 920 853 "},"’":{"x_min":72,"x_max":339,"ha":411,"o":"m 72 616 l 220 616 l 339 983 l 169 983 l 72 616 "},"-":{"x_min":47.21875,"x_max":390.28125,"ha":438,"o":"m 390 412 l 47 412 l 47 270 l 390 270 l 390 412 "},"Q":{"x_min":56.9375,"x_max":1165.28125,"ha":1183,"o":"m 1165 141 l 883 141 l 883 144 b 1090 512 977 198 1090 307 b 573 1008 1090 801 854 1008 b 56 512 293 1008 56 801 b 593 0 56 193 287 0 l 1165 0 l 1165 141 m 569 850 b 906 508 768 850 906 704 b 572 158 906 307 766 158 b 240 508 380 158 240 307 b 569 850 240 704 379 850 "},"M":{"x_min":113.890625,"x_max":1172.21875,"ha":1286,"o":"m 113 0 l 280 0 l 280 817 l 283 817 l 581 0 l 704 0 l 1002 817 l 1005 817 l 1005 0 l 1172 0 l 1172 984 l 908 984 l 643 295 l 380 984 l 113 984 l 113 0 "},"C":{"x_min":56.9375,"x_max":943.0625,"ha":951,"o":"m 920 853 b 576 1008 823 965 709 1008 b 56 487 273 1008 56 803 b 576 -25 56 180 273 -25 b 943 150 720 -25 854 27 l 798 252 b 577 133 733 169 656 133 b 240 498 375 133 240 289 b 577 850 240 694 375 850 b 784 753 645 850 712 829 l 920 853 "},"œ":{"x_min":49.828125,"x_max":1235.953125,"ha":1286,"o":"m 1235 283 l 1235 329 b 915 684 1235 525 1131 684 b 667 575 815 684 727 649 b 412 684 601 649 510 684 b 49 333 210 684 49 543 b 412 -17 49 123 210 -17 b 665 89 509 -17 598 16 b 912 -17 716 21 802 -17 b 1205 124 1033 -17 1131 21 l 1090 206 b 912 116 1048 155 994 116 b 749 283 841 116 745 182 l 1235 283 m 744 400 b 915 558 747 504 835 558 b 1069 400 1004 558 1067 497 l 744 400 m 216 333 b 412 542 216 446 290 542 b 610 333 537 542 610 446 b 412 124 610 220 537 124 b 216 333 290 124 216 220 "},"!":{"x_min":94.4375,"x_max":316.671875,"ha":411,"o":"m 288 983 l 122 983 l 122 308 l 288 308 l 288 983 m 94 97 b 205 -8 94 37 147 -8 b 316 100 266 -8 316 40 b 205 205 316 159 265 205 b 94 97 144 205 94 157 "},"ç":{"x_min":61.296875,"x_max":665.453125,"ha":669,"o":"m 665 582 b 423 683 601 653 508 683 b 61 333 222 683 61 543 b 350 -9 61 150 184 19 l 271 -125 l 308 -159 b 359 -150 325 -154 341 -150 b 430 -200 389 -150 430 -163 b 351 -258 430 -245 382 -258 b 237 -230 311 -258 272 -248 l 207 -294 b 354 -333 251 -319 302 -333 b 547 -198 437 -333 547 -300 b 379 -83 547 -91 461 -83 l 426 -16 b 664 76 484 -16 597 9 l 552 195 b 423 133 522 155 475 133 b 227 333 301 133 227 229 b 423 533 227 437 301 533 b 550 466 468 533 511 507 l 665 582 "},"È":{"x_min":108.828125,"x_max":785.21875,"ha":849,"o":"m 108 0 l 785 0 l 785 158 l 283 158 l 283 425 l 735 425 l 735 583 l 283 583 l 283 825 l 760 825 l 760 983 l 108 983 l 108 0 m 351 1250 l 163 1250 l 358 1050 l 489 1050 l 351 1250 "},"ﬁ":{"x_min":16.671875,"x_max":775,"ha":824,"o":"m 154 0 l 320 0 l 320 524 l 475 524 l 475 666 l 320 666 l 320 787 b 427 924 320 861 334 924 b 497 915 451 924 473 920 l 508 1056 b 402 1066 473 1063 438 1066 b 154 760 195 1066 154 945 l 154 666 l 16 666 l 16 524 l 154 524 l 154 0 m 583 0 l 750 0 l 750 666 l 583 666 l 583 0 m 561 892 b 666 792 561 840 605 792 b 775 892 727 792 775 836 b 666 993 775 949 727 993 b 561 892 605 993 561 945 "},"{":{"x_min":0,"x_max":434.71875,"ha":386,"o":"m 0 339 b 130 232 38 339 130 319 l 130 -33 b 308 -216 130 -158 248 -216 l 434 -216 l 434 -100 l 358 -100 b 272 -2 279 -100 272 -43 l 272 250 b 136 398 270 379 180 394 l 136 401 b 272 541 180 407 270 433 l 272 803 b 358 900 272 843 279 900 l 434 900 l 434 1017 l 308 1017 b 130 833 248 1017 130 958 l 130 558 b 0 461 130 479 38 461 l 0 339 "},"X":{"x_min":0,"x_max":951,"ha":951,"o":"m 0 0 l 211 0 l 469 415 l 728 0 l 951 0 l 594 514 l 916 983 l 703 983 l 474 619 l 242 983 l 22 983 l 349 514 l 0 0 "},"ô":{"x_min":61.28125,"x_max":786.78125,"ha":847,"o":"m 61 333 b 424 -16 61 123 222 -16 b 786 333 625 -16 786 123 b 424 683 786 543 625 683 b 61 333 222 683 61 543 m 228 333 b 424 533 228 437 301 533 b 620 333 546 533 620 437 b 424 133 620 229 546 133 b 228 333 301 133 228 229 m 677 783 l 518 983 l 330 983 l 171 783 l 326 783 l 422 908 l 518 783 l 677 783 "},"¼":{"x_min":40,"x_max":1194.609375,"ha":1235,"o":"m 233 401 l 374 401 l 374 992 l 248 992 l 40 829 l 116 738 l 233 842 l 233 401 m 979 0 l 1121 0 l 1121 118 l 1194 118 l 1194 235 l 1121 235 l 1121 590 l 965 590 l 704 226 l 704 118 l 979 118 l 979 0 m 979 235 l 846 235 l 977 424 l 979 421 l 979 235 m 255 8 l 370 -44 l 948 975 l 833 1028 l 255 8 "},"#":{"x_min":64.734375,"x_max":757,"ha":822,"o":"m 148 0 l 269 0 l 310 290 l 455 290 l 413 0 l 534 0 l 577 290 l 716 290 l 716 407 l 591 407 l 615 576 l 757 576 l 757 693 l 632 693 l 673 983 l 552 983 l 511 693 l 367 693 l 409 983 l 287 983 l 245 693 l 105 693 l 105 576 l 230 576 l 205 407 l 64 407 l 64 290 l 189 290 l 148 0 m 494 576 l 470 407 l 327 407 l 351 576 l 494 576 "},"Ê":{"x_min":110.5,"x_max":787.328125,"ha":849,"o":"m 110 0 l 787 0 l 787 158 l 285 158 l 285 425 l 737 425 l 737 583 l 285 583 l 285 825 l 762 825 l 762 983 l 110 983 l 110 0 m 679 1050 l 520 1250 l 332 1250 l 173 1050 l 328 1050 l 424 1175 l 520 1050 l 679 1050 "},")":{"x_min":23.609375,"x_max":344.4375,"ha":411,"o":"m 141 -217 b 344 400 268 -41 344 174 b 141 1017 344 626 268 841 l 25 939 b 202 400 136 784 202 591 b 25 -139 202 209 136 15 l 23 -144 l 141 -217 "},"Å":{"x_min":0,"x_max":1003,"ha":1003,"o":"m 0 0 l 195 0 l 284 225 l 711 225 l 802 0 l 1003 0 l 579 983 l 427 983 l 0 0 m 344 375 l 498 775 l 650 375 l 344 375 m 647 1163 b 501 1304 647 1245 583 1304 b 355 1161 418 1304 355 1243 b 501 1021 355 1081 419 1021 b 647 1163 583 1021 647 1081 m 580 1163 b 501 1088 580 1118 543 1088 b 422 1163 459 1088 422 1120 b 501 1238 422 1206 459 1238 b 580 1163 543 1238 580 1206 "},"ø":{"x_min":50.046875,"x_max":803.890625,"ha":847,"o":"m 259 222 b 227 333 238 254 227 293 b 423 533 227 437 301 533 b 533 500 466 533 504 521 l 259 222 m 590 442 b 619 333 609 410 619 372 b 423 133 619 229 545 133 b 315 165 380 133 344 144 l 590 442 m 745 714 l 646 614 b 423 684 585 659 508 684 b 61 333 222 684 61 543 b 143 103 61 241 91 162 l 50 9 l 105 -47 l 202 51 b 423 -17 262 7 338 -17 b 785 333 624 -17 785 123 b 706 560 785 423 755 501 l 803 659 l 745 714 "},"â":{"x_min":50.078125,"x_max":662,"ha":746,"o":"m 511 0 l 662 0 l 662 383 b 376 683 662 478 662 683 b 93 576 271 683 166 651 l 180 489 b 358 558 225 530 289 558 b 511 433 447 558 511 515 l 511 415 l 470 415 b 50 183 303 415 50 400 b 293 -16 50 51 169 -16 b 507 91 382 -16 460 16 l 511 91 l 511 0 m 502 261 b 333 108 502 168 447 108 b 216 195 279 108 216 134 b 467 298 216 291 375 298 l 502 298 l 502 261 m 627 783 l 468 983 l 280 983 l 121 783 l 276 783 l 372 908 l 468 783 l 627 783 "},"}":{"x_min":-48.609375,"x_max":386.109375,"ha":386,"o":"m 386 461 b 255 568 347 461 255 480 l 255 833 b 77 1017 255 958 137 1017 l -48 1017 l -48 900 l 27 900 b 113 803 106 900 113 843 l 113 550 b 250 401 115 421 205 405 l 250 398 b 113 258 205 393 115 366 l 113 -2 b 27 -100 113 -43 106 -100 l -48 -100 l -48 -216 l 77 -216 b 255 -33 137 -216 255 -158 l 255 241 b 386 339 255 320 347 339 l 386 461 "},"‰":{"x_min":9.71875,"x_max":1611.109375,"ha":1621,"o":"m 570 229 b 815 -16 570 94 680 -16 b 1061 229 950 -16 1061 94 b 815 473 1061 364 950 473 b 570 229 680 473 570 364 m 1120 229 b 1365 -16 1120 94 1230 -16 b 1611 229 1500 -16 1611 94 b 1365 473 1611 364 1500 473 b 1120 229 1230 473 1120 364 m 9 755 b 254 509 9 621 119 509 b 500 755 388 509 500 621 b 254 1000 500 890 388 1000 b 9 755 119 1000 9 890 m 134 755 b 254 875 134 825 184 875 b 375 755 323 875 375 825 b 254 635 375 686 323 635 b 134 755 184 635 134 686 m 695 229 b 815 348 695 298 745 348 b 936 229 884 348 936 298 b 815 108 936 159 884 108 b 695 229 745 108 695 159 m 1245 229 b 1365 348 1245 298 1295 348 b 1486 229 1434 348 1486 298 b 1365 108 1486 159 1434 108 b 1245 229 1295 108 1245 159 m 186 8 l 301 -44 l 879 975 l 763 1028 l 186 8 "},"Ä":{"x_min":0,"x_max":1003,"ha":1003,"o":"m 0 0 l 195 0 l 284 225 l 711 225 l 802 0 l 1003 0 l 579 983 l 427 983 l 0 0 m 344 375 l 498 775 l 650 375 l 344 375 m 251 1150 b 356 1050 251 1097 295 1050 b 465 1150 418 1050 465 1093 b 356 1250 465 1207 418 1250 b 251 1150 295 1250 251 1203 m 537 1150 b 643 1050 537 1097 581 1050 b 751 1150 704 1050 751 1093 b 643 1250 751 1207 704 1250 b 537 1150 581 1250 537 1203 "},"¸":{"x_min":73.40625,"x_max":413.6875,"ha":361,"o":"m 303 0 l 223 0 l 137 -125 l 174 -159 b 226 -150 191 -154 208 -150 b 297 -200 255 -150 297 -163 b 217 -258 297 -245 248 -258 b 103 -230 177 -258 138 -248 l 73 -294 b 220 -333 117 -319 169 -333 b 413 -198 303 -333 413 -300 b 245 -83 413 -91 327 -83 l 303 0 "},"a":{"x_min":50.078125,"x_max":661.203125,"ha":746,"o":"m 511 0 l 661 0 l 661 383 b 376 683 661 478 661 683 b 93 576 270 683 166 651 l 180 489 b 358 558 225 530 288 558 b 511 433 447 558 511 515 l 511 415 l 469 415 b 50 183 302 415 50 400 b 293 -16 50 51 169 -16 b 507 91 382 -16 459 16 l 511 91 l 511 0 m 501 261 b 333 108 501 168 447 108 b 216 195 279 108 216 134 b 466 298 216 291 375 298 l 501 298 l 501 261 "},"—":{"x_min":0,"x_max":1388.890625,"ha":1389,"o":"m 1388 408 l 0 408 l 0 275 l 1388 275 l 1388 408 "},"=":{"x_min":86.109375,"x_max":838.890625,"ha":925,"o":"m 86 616 l 86 475 l 838 475 l 838 616 l 86 616 m 86 366 l 86 225 l 838 225 l 838 366 l 86 366 "},"N":{"x_min":109.890625,"x_max":996,"ha":1106,"o":"m 109 0 l 284 0 l 284 754 l 287 754 l 773 0 l 996 0 l 996 983 l 821 983 l 821 252 l 818 250 l 821 250 l 818 252 l 341 983 l 109 983 l 109 0 "},"˚":{"x_min":34.71875,"x_max":326.390625,"ha":361,"o":"m 326 910 b 180 1051 326 992 262 1051 b 34 908 97 1051 34 990 b 180 768 34 828 98 768 b 326 910 262 768 326 828 m 259 910 b 180 835 259 865 222 835 b 101 910 138 835 101 867 b 180 985 101 953 138 985 b 259 910 222 985 259 953 "},"ú":{"x_min":94.4375,"x_max":702.78125,"ha":797,"o":"m 702 667 l 536 667 l 536 302 b 383 133 536 214 493 133 b 261 329 266 133 261 255 l 261 667 l 94 667 l 94 245 b 337 -16 94 109 158 -16 b 541 107 448 -16 511 40 l 544 107 l 544 0 l 702 0 l 702 667 m 332 783 l 463 783 l 659 983 l 470 983 l 332 783 "},"⁄":{"x_min":-231,"x_max":462,"ha":232,"o":"m -231 8 l -115 -44 l 462 975 l 346 1028 l -231 8 "},"2":{"x_min":82.109375,"x_max":740.5625,"ha":822,"o":"m 82 0 l 740 0 l 740 150 l 285 150 l 589 432 b 740 721 676 512 740 597 b 422 1000 740 910 598 1000 b 96 722 244 1000 112 904 l 271 708 b 422 842 282 789 340 842 b 565 712 498 842 565 793 b 464 546 565 644 510 590 l 82 176 l 82 0 "},"ü":{"x_min":94.4375,"x_max":702.78125,"ha":797,"o":"m 702 667 l 536 667 l 536 302 b 383 133 536 214 493 133 b 261 329 266 133 261 255 l 261 667 l 94 667 l 94 245 b 337 -16 94 109 158 -16 b 541 107 448 -16 511 40 l 544 107 l 544 0 l 702 0 l 702 667 m 148 883 b 254 783 148 830 193 783 b 362 883 315 783 362 826 b 254 983 362 940 315 983 b 148 883 193 983 148 936 m 434 883 b 540 783 434 830 479 783 b 648 883 601 783 648 826 b 540 983 648 940 601 983 b 434 883 479 983 434 936 "},"¯":{"x_min":-41.671875,"x_max":402.78125,"ha":361,"o":"m 402 935 l -41 935 l -41 826 l 402 826 l 402 935 "},"Z":{"x_min":48.890625,"x_max":800.28125,"ha":849,"o":"m 48 0 l 800 0 l 800 158 l 262 158 l 791 825 l 791 983 l 57 983 l 57 825 l 573 825 l 48 158 l 48 0 "},"u":{"x_min":94.4375,"x_max":702.78125,"ha":797,"o":"m 702 667 l 536 667 l 536 302 b 383 133 536 214 493 133 b 261 329 266 133 261 255 l 261 667 l 94 667 l 94 245 b 337 -16 94 109 158 -16 b 541 107 448 -16 511 40 l 544 107 l 544 0 l 702 0 l 702 667 "},"˜":{"x_min":-75.109375,"x_max":436,"ha":361,"o":"m 16 789 b 80 849 26 819 42 849 b 280 796 124 849 205 796 b 436 972 384 796 420 883 l 344 972 b 280 914 334 942 317 914 b 80 965 236 914 155 965 b -75 789 -23 965 -59 878 l 16 789 "},"Ó":{"x_min":56.9375,"x_max":1100,"ha":1157,"o":"m 56 487 b 576 -25 56 180 273 -25 b 1100 493 883 -19 1100 186 b 576 1008 1100 808 883 1014 b 56 487 273 1008 56 803 m 240 498 b 577 850 240 694 375 850 b 916 498 781 850 916 694 b 577 133 916 289 781 133 b 240 498 375 133 240 289 m 513 1050 l 644 1050 l 840 1250 l 651 1250 l 513 1050 "},"k":{"x_min":94.4375,"x_max":750,"ha":746,"o":"m 94 0 l 261 0 l 261 340 l 263 340 l 529 0 l 750 0 l 445 364 l 731 667 l 518 667 l 261 390 l 261 1050 l 94 1050 l 94 0 "},"ˇ":{"x_min":-71,"x_max":432,"ha":361,"o":"m -71 983 l 87 783 l 272 783 l 432 983 l 279 983 l 183 858 l 87 983 l -71 983 "},"Ù":{"x_min":105.28125,"x_max":896.953125,"ha":1003,"o":"m 896 983 l 721 983 l 721 366 b 501 141 721 269 669 141 b 280 366 333 141 280 269 l 280 983 l 105 983 l 105 361 b 501 -25 105 123 276 -25 b 896 361 726 -25 896 123 l 896 983 m 428 1250 l 240 1250 l 435 1050 l 566 1050 l 428 1250 "},"Ÿ":{"x_min":-19.4375,"x_max":894.453125,"ha":875,"o":"m 350 0 l 525 0 l 525 420 l 894 982 l 686 982 l 441 591 l 200 982 l -19 982 l 350 420 l 350 0 m 187 1149 b 293 1049 187 1096 231 1049 b 401 1149 354 1049 401 1092 b 293 1249 401 1206 354 1249 b 187 1149 231 1249 187 1202 m 473 1149 b 579 1049 473 1096 518 1049 b 687 1149 640 1049 687 1092 b 579 1249 687 1206 640 1249 b 473 1149 518 1249 473 1202 "},"¢":{"x_min":108.328125,"x_max":727.78125,"ha":822,"o":"m 491 776 l 416 776 l 416 683 b 108 334 226 658 108 527 b 416 -16 108 147 226 0 l 416 -116 l 491 -116 l 491 -16 b 727 79 577 -13 668 13 l 626 188 b 491 125 593 151 543 125 l 491 541 b 620 479 541 539 586 515 l 727 587 b 491 683 670 655 579 680 l 491 776 m 416 125 b 266 333 318 150 266 236 b 416 540 266 434 313 519 l 416 125 "},"ß":{"x_min":77.78125,"x_max":787.5,"ha":849,"o":"m 77 0 l 244 0 l 244 748 b 405 917 244 844 294 917 b 545 787 481 917 545 864 b 401 657 545 705 483 657 l 390 657 l 390 515 l 409 515 b 620 316 533 515 620 447 b 420 125 620 198 537 125 b 344 138 393 125 369 127 l 344 -1 b 461 -16 383 -12 422 -16 b 787 302 651 -16 787 112 b 565 587 787 447 713 568 l 565 590 b 712 810 659 629 712 708 b 411 1067 712 981 572 1067 b 77 710 187 1067 77 961 l 77 0 "},"é":{"x_min":61.328125,"x_max":735.953125,"ha":797,"o":"m 735 275 l 735 320 b 423 683 735 553 609 683 b 61 333 222 683 61 543 b 423 -16 61 123 222 -16 b 705 116 529 -16 627 20 l 586 207 b 407 116 544 155 490 116 b 228 275 314 116 239 176 l 735 275 m 228 400 b 400 558 240 496 301 558 b 569 400 504 558 568 497 l 228 400 m 332 783 l 463 783 l 659 983 l 470 983 l 332 783 "},"s":{"x_min":34.734375,"x_max":581.953125,"ha":617,"o":"m 561 581 b 323 683 506 655 412 683 b 55 467 188 683 55 616 b 415 184 55 213 415 322 b 304 108 415 131 352 108 b 145 190 233 108 188 142 l 34 85 b 294 -16 102 9 191 -16 b 581 197 430 -16 581 38 b 222 478 581 456 222 359 b 319 549 222 529 275 549 b 450 481 376 549 418 526 l 561 581 "},"B":{"x_min":109.71875,"x_max":836.109375,"ha":900,"o":"m 109 0 l 463 0 b 836 280 650 0 836 66 b 623 518 836 407 747 504 l 623 521 b 794 736 725 551 794 625 b 493 983 794 915 641 983 l 109 983 l 109 0 m 284 833 l 429 833 b 619 707 561 833 619 792 b 444 583 619 633 561 583 l 284 583 l 284 833 m 284 433 l 452 433 b 661 294 594 433 661 397 b 445 150 661 165 536 150 l 284 150 l 284 433 "},"…":{"x_min":120.828125,"x_max":1268.0625,"ha":1389,"o":"m 120 97 b 231 -8 120 37 173 -8 b 343 100 293 -8 343 40 b 231 205 343 159 291 205 b 120 97 170 205 120 157 m 583 97 b 694 -8 583 37 636 -8 b 805 100 755 -8 805 40 b 694 205 805 159 754 205 b 583 97 633 205 583 157 m 1045 97 b 1156 -8 1045 37 1098 -8 b 1268 100 1218 -8 1268 40 b 1156 205 1268 159 1216 205 b 1045 97 1095 205 1045 157 "},"?":{"x_min":66.671875,"x_max":683.328125,"ha":721,"o":"m 458 290 l 458 343 b 531 482 458 415 480 433 b 683 737 612 558 683 616 b 390 1008 683 912 555 1008 b 66 728 213 1008 87 904 l 244 714 b 383 850 251 789 305 850 b 508 728 455 850 508 800 b 473 637 508 693 497 661 l 366 529 b 291 366 309 471 291 450 l 291 290 l 458 290 m 263 97 b 375 -8 263 37 316 -8 b 486 100 436 -8 486 40 b 375 205 486 159 434 205 b 263 97 313 205 263 157 "},"H":{"x_min":109.71875,"x_max":919.453125,"ha":1029,"o":"m 109 0 l 284 0 l 284 433 l 744 433 l 744 0 l 919 0 l 919 983 l 744 983 l 744 591 l 284 591 l 284 983 l 109 983 l 109 0 "},"î":{"x_min":-72,"x_max":434,"ha":361,"o":"m 97 0 l 264 0 l 264 667 l 97 667 l 97 0 m 434 783 l 275 983 l 87 983 l -72 783 l 83 783 l 179 908 l 275 783 l 434 783 "},"c":{"x_min":61.109375,"x_max":665.28125,"ha":669,"o":"m 665 582 b 423 683 601 653 508 683 b 61 333 222 683 61 543 b 423 -16 61 123 222 -16 b 663 76 481 -16 595 8 l 552 195 b 423 133 522 155 475 133 b 227 333 301 133 227 229 b 423 533 227 437 301 533 b 550 466 468 533 511 507 l 665 582 "},"¶":{"x_min":43.0625,"x_max":740.28125,"ha":833,"o":"m 341 -175 l 466 -175 l 466 883 l 615 883 l 615 -175 l 740 -175 l 740 983 l 366 983 b 43 722 173 983 43 908 b 341 469 43 576 161 469 l 341 -175 "},"−":{"x_min":86.109375,"x_max":838.890625,"ha":925,"o":"m 86 491 l 86 350 l 838 350 l 838 491 l 86 491 "},"•":{"x_min":101.390625,"x_max":593.0625,"ha":694,"o":"m 101 491 b 347 245 101 355 211 245 b 593 491 483 245 593 355 b 347 737 593 628 483 737 b 101 491 211 737 101 628 "},"¥":{"x_min":17,"x_max":806,"ha":822,"o":"m 328 0 l 494 0 l 494 245 l 731 245 l 731 353 l 494 353 l 494 420 l 521 467 l 731 467 l 731 576 l 581 576 l 806 983 l 626 983 l 419 574 l 204 983 l 17 983 l 242 576 l 92 576 l 92 467 l 301 467 l 328 420 l 328 353 l 92 353 l 92 245 l 328 245 l 328 0 "},"(":{"x_min":66.671875,"x_max":387.5,"ha":411,"o":"m 269 1017 b 66 400 143 841 66 625 b 269 -217 66 173 143 -41 l 386 -140 b 208 400 275 13 208 208 b 386 939 208 590 275 784 l 387 944 l 269 1017 "},"U":{"x_min":105.5625,"x_max":897.21875,"ha":1003,"o":"m 897 983 l 722 983 l 722 366 b 501 141 722 269 669 141 b 280 366 333 141 280 269 l 280 983 l 105 983 l 105 361 b 501 -25 105 123 276 -25 b 897 361 726 -25 897 123 l 897 983 "},"Ñ":{"x_min":109.890625,"x_max":996,"ha":1106,"o":"m 109 0 l 284 0 l 284 754 l 287 754 l 773 0 l 996 0 l 996 983 l 821 983 l 821 252 l 818 250 l 821 250 l 818 252 l 341 983 l 109 983 l 109 0 m 388 1056 b 452 1115 398 1086 415 1115 b 652 1063 497 1115 577 1063 b 808 1239 756 1063 793 1150 l 716 1239 b 652 1181 706 1208 690 1181 b 452 1232 608 1181 527 1232 b 297 1056 348 1232 312 1145 l 388 1056 "},"F":{"x_min":109.71875,"x_max":744.453125,"ha":797,"o":"m 109 0 l 284 0 l 284 408 l 718 408 l 718 566 l 284 566 l 284 825 l 744 825 l 744 983 l 109 983 l 109 0 "},":":{"x_min":94.4375,"x_max":316.671875,"ha":411,"o":"m 94 97 b 205 -8 94 37 147 -8 b 316 100 266 -8 316 40 b 205 205 316 159 265 205 b 94 97 144 205 94 157 m 94 568 b 205 462 94 508 147 462 b 316 571 266 462 316 511 b 205 676 316 630 265 676 b 94 568 144 676 94 628 "},"Û":{"x_min":105.9375,"x_max":898,"ha":1003,"o":"m 898 983 l 722 983 l 722 366 b 501 141 722 269 670 141 b 280 366 333 141 280 269 l 280 983 l 105 983 l 105 361 b 501 -25 105 123 276 -25 b 898 361 727 -25 898 123 l 898 983 m 754 1050 l 596 1250 l 408 1250 l 249 1050 l 404 1050 l 500 1175 l 596 1050 l 754 1050 "},"*":{"x_min":39,"x_max":604,"ha":643,"o":"m 380 983 l 263 983 l 263 786 l 75 851 l 39 740 l 229 675 l 109 518 l 202 447 l 319 607 l 438 443 l 534 512 l 415 675 l 604 736 l 567 847 l 380 786 l 380 983 "},"†":{"x_min":56.9375,"x_max":766.671875,"ha":824,"o":"m 490 983 l 331 983 l 331 701 l 56 701 l 56 568 l 331 568 l 331 -175 l 490 -175 l 490 568 l 766 568 l 766 701 l 490 701 l 490 983 "},"°":{"x_min":55.5625,"x_max":500,"ha":556,"o":"m 55 779 b 277 557 55 657 155 557 b 500 779 400 557 500 657 b 277 1001 500 901 400 1001 b 55 779 155 1001 55 901 m 163 779 b 277 893 163 842 215 893 b 391 779 340 893 391 842 b 277 665 391 717 340 665 b 163 779 215 665 163 717 "},"V":{"x_min":-3.71875,"x_max":931,"ha":926,"o":"m 382 0 l 533 0 l 931 983 l 742 983 l 465 240 l 197 983 l -3 983 l 382 0 "},"å":{"x_min":50.078125,"x_max":661.203125,"ha":746,"o":"m 511 0 l 661 0 l 661 383 b 376 683 661 478 661 683 b 93 576 270 683 166 651 l 180 489 b 358 558 225 530 288 558 b 511 433 447 558 511 515 l 511 415 l 469 415 b 50 183 302 415 50 400 b 293 -16 50 51 169 -16 b 507 91 382 -16 459 16 l 511 91 l 511 0 m 501 261 b 333 108 501 168 447 108 b 216 195 279 108 216 134 b 466 298 216 291 375 298 l 501 298 l 501 261 m 519 910 b 373 1051 519 992 455 1051 b 227 908 290 1051 227 990 b 373 768 227 828 291 768 b 519 910 455 768 519 828 m 452 910 b 373 835 452 865 415 835 b 294 910 331 835 294 867 b 373 985 294 953 331 985 b 452 910 415 985 452 953 "},"0":{"x_min":55.5625,"x_max":766.671875,"ha":822,"o":"m 55 491 b 411 -16 55 26 301 -16 b 766 491 520 -16 766 26 b 411 1000 766 957 520 1000 b 55 491 301 1000 55 957 m 222 491 b 411 842 222 614 244 842 b 600 491 577 842 600 614 b 411 141 600 369 577 141 b 222 491 244 141 222 369 "},"”":{"x_min":81,"x_max":641,"ha":721,"o":"m 374 616 l 522 616 l 641 983 l 471 983 l 374 616 m 81 616 l 229 616 l 348 983 l 178 983 l 81 616 "},"¾":{"x_min":31.9375,"x_max":1202.78125,"ha":1235,"o":"m 993 217 l 826 217 l 826 220 l 990 464 l 993 464 l 993 217 m 197 649 l 229 649 b 350 584 290 649 350 648 b 261 517 350 535 311 517 b 175 587 211 517 183 544 l 31 556 b 261 392 58 438 147 392 b 491 570 386 392 491 451 b 370 709 491 638 447 699 l 370 712 b 480 841 441 724 480 776 b 265 999 480 948 377 999 b 37 841 156 999 65 959 l 180 813 b 265 874 190 852 223 874 b 338 829 309 874 338 858 b 241 766 338 776 291 766 l 197 766 l 197 649 m 988 0 l 1130 0 l 1130 117 l 1202 117 l 1202 234 l 1130 234 l 1130 590 l 975 590 l 713 225 l 713 117 l 988 117 l 988 0 m 293 7 l 408 -45 l 986 974 l 870 1027 l 293 7 "},"@":{"x_min":44.4375,"x_max":1066.671875,"ha":1111,"o":"m 556 633 b 659 505 626 633 659 579 b 525 337 659 429 630 337 b 409 465 409 337 409 436 b 556 633 409 557 463 633 m 856 184 b 594 100 788 130 698 100 b 186 490 359 100 186 247 b 570 883 186 718 340 883 b 933 544 781 883 933 767 b 813 337 933 400 872 337 b 776 389 784 337 776 355 b 788 468 776 416 783 441 l 840 742 l 709 742 l 698 679 l 695 679 b 545 758 668 736 619 758 b 268 446 373 758 268 608 b 468 212 268 308 348 212 b 645 287 555 212 609 250 l 648 287 b 758 212 650 251 680 212 b 1066 551 841 212 1066 255 b 575 1008 1066 846 819 1008 b 44 490 281 1008 44 786 b 583 -25 44 188 287 -25 b 1009 184 752 -25 911 48 l 856 184 "},"ö":{"x_min":61.109375,"x_max":786.109375,"ha":847,"o":"m 61 333 b 423 -16 61 123 222 -16 b 786 333 625 -16 786 123 b 423 683 786 543 625 683 b 61 333 222 683 61 543 m 227 333 b 423 533 227 437 301 533 b 619 333 545 533 619 437 b 423 133 619 229 545 133 b 227 333 301 133 227 229 m 173 883 b 279 783 173 830 218 783 b 387 883 340 783 387 826 b 279 983 387 940 340 983 b 173 883 218 983 173 936 m 459 883 b 565 783 459 830 504 783 b 673 883 626 783 673 826 b 565 983 673 940 626 983 b 459 883 504 983 459 936 "},"i":{"x_min":73.609375,"x_max":287.5,"ha":361,"o":"m 97 0 l 263 0 l 263 667 l 97 667 l 97 0 m 73 893 b 179 793 73 840 118 793 b 287 893 240 793 287 836 b 179 993 287 950 240 993 b 73 893 118 993 73 946 "},"Õ":{"x_min":56.9375,"x_max":1100,"ha":1157,"o":"m 56 487 b 576 -25 56 180 273 -25 b 1100 493 883 -19 1100 186 b 576 1008 1100 808 883 1014 b 56 487 273 1008 56 803 m 240 498 b 577 850 240 694 375 850 b 916 498 781 850 916 694 b 577 133 916 289 781 133 b 240 498 375 133 240 289 m 415 1056 b 479 1115 425 1086 441 1115 b 679 1063 523 1115 604 1063 b 834 1239 783 1063 819 1150 l 743 1239 b 679 1181 733 1208 716 1181 b 479 1232 634 1181 554 1232 b 323 1056 375 1232 338 1145 l 415 1056 "},"þ":{"x_min":94.4375,"x_max":813.890625,"ha":875,"o":"m 94 -316 l 261 -316 l 261 84 l 265 84 b 491 -16 300 41 366 -16 b 813 333 681 -16 813 136 b 484 683 813 530 690 683 b 263 580 391 683 304 647 l 261 580 l 261 1050 l 94 1050 l 94 -316 m 647 333 b 451 133 647 229 573 133 b 255 333 329 133 255 229 b 451 533 255 437 329 533 b 647 333 573 533 647 437 "},"]":{"x_min":27.78125,"x_max":294.4375,"ha":386,"o":"m 27 -216 l 294 -216 l 294 1017 l 27 1017 l 27 908 l 152 908 l 152 -108 l 27 -108 l 27 -216 "},"m":{"x_min":87.5,"x_max":1120.828125,"ha":1208,"o":"m 87 0 l 254 0 l 254 364 b 406 533 254 453 297 533 b 520 397 487 533 520 479 l 520 0 l 687 0 l 687 361 b 830 533 687 447 726 533 b 954 378 929 533 954 461 l 954 0 l 1120 0 l 1120 397 b 880 684 1120 557 1058 684 b 661 560 780 684 709 645 b 452 684 626 643 555 684 b 248 563 341 684 277 625 l 245 563 l 245 667 l 87 667 l 87 0 "},"8":{"x_min":79.171875,"x_max":743.0625,"ha":822,"o":"m 411 1000 b 109 742 244 1000 109 907 b 258 521 109 637 159 550 l 258 518 b 79 279 165 498 79 400 b 411 -16 79 84 227 -16 b 743 279 594 -16 743 84 b 563 518 743 400 658 498 l 563 521 b 712 742 662 550 712 637 b 411 1000 712 907 577 1000 m 411 858 b 545 725 487 858 545 799 b 411 587 545 647 484 587 b 276 725 329 587 276 647 b 411 858 276 799 326 858 m 411 454 b 576 300 501 454 576 390 b 411 141 576 207 506 141 b 245 300 315 141 245 207 b 411 454 245 390 320 454 "},"ž":{"x_min":46.78125,"x_max":621.78125,"ha":669,"o":"m 46 0 l 621 0 l 621 133 l 244 133 l 605 515 l 605 667 l 63 667 l 63 533 l 403 533 l 403 530 l 46 154 l 46 0 m 83 983 l 241 783 l 426 783 l 586 983 l 433 983 l 337 858 l 241 983 l 83 983 "},"R":{"x_min":109.71875,"x_max":851.390625,"ha":875,"o":"m 109 0 l 284 0 l 284 416 l 412 416 l 640 0 l 851 0 l 590 434 b 818 701 736 455 818 560 b 451 983 818 922 640 983 l 109 983 l 109 0 m 284 566 l 284 833 l 436 833 b 634 703 526 833 634 819 b 420 566 634 575 519 566 l 284 566 "},"á":{"x_min":50.078125,"x_max":661.203125,"ha":746,"o":"m 511 0 l 661 0 l 661 383 b 376 683 661 478 661 683 b 93 576 270 683 166 651 l 180 489 b 358 558 225 530 288 558 b 511 433 447 558 511 515 l 511 415 l 469 415 b 50 183 302 415 50 400 b 293 -16 50 51 169 -16 b 507 91 382 -16 459 16 l 511 91 l 511 0 m 501 261 b 333 108 501 168 447 108 b 216 195 279 108 216 134 b 466 298 216 291 375 298 l 501 298 l 501 261 m 307 783 l 438 783 l 634 983 l 445 983 l 307 783 "},"×":{"x_min":107,"x_max":818,"ha":925,"o":"m 208 774 l 108 675 l 363 416 l 107 163 l 209 62 l 461 314 l 715 62 l 818 165 l 561 423 l 812 675 l 715 772 l 462 519 l 208 774 "},"o":{"x_min":61.109375,"x_max":786.109375,"ha":847,"o":"m 61 333 b 423 -16 61 123 222 -16 b 786 333 625 -16 786 123 b 423 683 786 543 625 683 b 61 333 222 683 61 543 m 227 333 b 423 533 227 437 301 533 b 619 333 545 533 619 437 b 423 133 619 229 545 133 b 227 333 301 133 227 229 "},"5":{"x_min":61.109375,"x_max":734.71875,"ha":822,"o":"m 701 983 l 141 983 l 131 452 b 337 499 190 481 265 499 b 568 309 459 499 568 447 b 397 141 568 213 497 141 b 236 255 312 141 258 184 l 61 208 b 379 -16 106 56 223 -16 b 734 323 580 -16 734 112 b 406 650 734 522 600 650 b 301 637 372 650 327 645 l 305 833 l 701 833 l 701 983 "},"õ":{"x_min":61.109375,"x_max":786.109375,"ha":847,"o":"m 61 333 b 423 -16 61 123 222 -16 b 786 333 625 -16 786 123 b 423 683 786 543 625 683 b 61 333 222 683 61 543 m 227 333 b 423 533 227 437 301 533 b 619 333 545 533 619 437 b 423 133 619 229 545 133 b 227 333 301 133 227 229 m 259 789 b 323 849 269 819 286 849 b 523 796 368 849 448 796 b 679 972 627 796 663 883 l 587 972 b 523 914 577 942 561 914 b 323 965 479 914 398 965 b 168 789 219 965 183 878 l 259 789 "},"7":{"x_min":57.984375,"x_max":726.015625,"ha":822,"o":"m 57 825 l 538 825 l 137 0 l 332 0 l 726 830 l 726 983 l 57 983 l 57 825 "},"K":{"x_min":109.71875,"x_max":966.671875,"ha":951,"o":"m 109 0 l 284 0 l 284 483 l 294 483 l 720 0 l 966 0 l 476 529 l 936 983 l 700 983 l 293 566 l 284 566 l 284 983 l 109 983 l 109 0 "},",":{"x_min":53,"x_max":320,"ha":411,"o":"m 53 -175 l 201 -175 l 320 191 l 150 191 l 53 -175 "},"d":{"x_min":61.109375,"x_max":780.5625,"ha":875,"o":"m 622 0 l 780 0 l 780 1050 l 613 1050 l 613 582 l 609 582 b 383 683 575 625 508 683 b 61 333 193 683 61 530 b 390 -16 61 136 184 -16 b 619 100 483 -16 570 19 l 622 100 l 622 0 m 227 333 b 423 533 227 437 301 533 b 619 333 545 533 619 437 b 423 133 619 229 545 133 b 227 333 301 133 227 229 "},"¨":{"x_min":-69.4375,"x_max":430.5625,"ha":361,"o":"m -69 883 b 36 783 -69 830 -25 783 b 144 883 97 783 144 826 b 36 983 144 940 97 983 b -69 883 -25 983 -69 936 m 216 883 b 322 783 216 830 261 783 b 430 883 383 783 430 826 b 322 983 430 940 383 983 b 216 883 261 983 216 936 "},"Ô":{"x_min":56.5625,"x_max":1100.0625,"ha":1157,"o":"m 56 487 b 576 -25 56 180 273 -25 b 1100 493 883 -19 1100 186 b 576 1008 1100 808 883 1014 b 56 487 273 1008 56 803 m 239 498 b 577 850 239 694 374 850 b 916 498 781 850 916 694 b 577 133 916 289 781 133 b 239 498 374 133 239 289 m 832 1050 l 673 1250 l 485 1250 l 326 1050 l 481 1050 l 577 1175 l 673 1050 l 832 1050 "},"E":{"x_min":109.71875,"x_max":786.109375,"ha":849,"o":"m 109 0 l 786 0 l 786 158 l 284 158 l 284 425 l 736 425 l 736 583 l 284 583 l 284 825 l 761 825 l 761 983 l 109 983 l 109 0 "},"Y":{"x_min":-19.4375,"x_max":894.453125,"ha":875,"o":"m 350 0 l 525 0 l 525 420 l 894 982 l 686 982 l 441 591 l 200 982 l -19 982 l 350 420 l 350 0 "},"\"":{"x_min":166.671875,"x_max":554.171875,"ha":721,"o":"m 166 616 l 308 616 l 308 983 l 166 983 l 166 616 m 412 616 l 554 616 l 554 983 l 412 983 l 412 616 "},"‹":{"x_min":42,"x_max":359,"ha":411,"o":"m 357 585 l 253 656 l 42 344 l 253 31 l 359 101 l 197 344 l 357 585 "},"˙":{"x_min":73.609375,"x_max":287.5,"ha":361,"o":"m 73 883 b 179 783 73 830 118 783 b 287 883 240 783 287 826 b 179 983 287 940 240 983 b 73 883 118 983 73 936 "},"ê":{"x_min":61.28125,"x_max":736.953125,"ha":797,"o":"m 736 275 l 736 320 b 424 683 736 553 610 683 b 61 333 222 683 61 543 b 424 -16 61 123 222 -16 b 706 116 529 -16 628 20 l 586 207 b 407 116 545 155 490 116 b 228 275 314 116 239 176 l 736 275 m 228 400 b 400 558 240 496 301 558 b 570 400 504 558 568 497 l 228 400 m 652 783 l 493 983 l 305 983 l 146 783 l 301 783 l 397 908 l 493 783 l 652 783 "},"Ï":{"x_min":-56.9375,"x_max":443.0625,"ha":386,"o":"m 105 0 l 280 0 l 280 983 l 105 983 l 105 0 m -56 1150 b 48 1050 -56 1097 -12 1050 b 156 1150 109 1050 156 1093 b 48 1250 156 1207 109 1250 b -56 1150 -12 1250 -56 1203 m 229 1150 b 334 1050 229 1097 273 1050 b 443 1150 395 1050 443 1093 b 334 1250 443 1207 395 1250 b 229 1150 273 1250 229 1203 "},"„":{"x_min":82,"x_max":639,"ha":721,"o":"m 372 -175 l 520 -175 l 639 191 l 469 191 l 372 -175 m 82 -175 l 230 -175 l 349 191 l 179 191 l 82 -175 "},"Â":{"x_min":0,"x_max":1003,"ha":1003,"o":"m 0 0 l 196 0 l 285 225 l 711 225 l 803 0 l 1003 0 l 579 983 l 428 983 l 0 0 m 344 375 l 499 775 l 650 375 l 344 375 m 755 1050 l 596 1250 l 408 1250 l 249 1050 l 404 1050 l 500 1175 l 596 1050 l 755 1050 "},"Í":{"x_min":105.5625,"x_max":453.875,"ha":386,"o":"m 105 0 l 280 0 l 280 983 l 105 983 l 105 0 m 127 1050 l 258 1050 l 453 1250 l 264 1250 l 127 1050 "},"´":{"x_min":115,"x_max":441,"ha":361,"o":"m 115 783 l 245 783 l 441 983 l 252 983 l 115 783 "},"ì":{"x_min":-64,"x_max":263.78125,"ha":361,"o":"m 97 0 l 263 0 l 263 667 l 97 667 l 97 0 m 124 983 l -64 983 l 131 783 l 262 783 l 124 983 "},"±":{"x_min":86.109375,"x_max":838.890625,"ha":925,"o":"m 393 598 l 86 598 l 86 457 l 393 457 l 393 258 l 534 258 l 534 457 l 838 457 l 838 598 l 534 598 l 534 797 l 393 797 l 393 598 m 86 44 l 838 44 l 838 186 l 86 186 l 86 44 "},"Ú":{"x_min":105.5625,"x_max":897.21875,"ha":1003,"o":"m 897 983 l 722 983 l 722 366 b 501 141 722 269 669 141 b 280 366 333 141 280 269 l 280 983 l 105 983 l 105 361 b 501 -25 105 123 276 -25 b 897 361 726 -25 897 123 l 897 983 m 435 1050 l 566 1050 l 761 1250 l 572 1250 l 435 1050 "},"|":{"x_min":83.328125,"x_max":225,"ha":308,"o":"m 83 1042 l 83 -347 l 225 -347 l 225 1042 l 83 1042 "},"§":{"x_min":74.28125,"x_max":724.0625,"ha":824,"o":"m 697 868 b 416 1008 645 972 524 1008 b 134 779 279 1008 134 933 b 225 621 134 710 168 657 b 92 415 146 578 92 516 b 507 31 92 157 507 184 b 380 -58 507 -36 437 -58 b 222 43 312 -58 242 -26 l 74 -29 b 381 -200 131 -157 250 -200 b 690 45 527 -200 690 -122 b 606 211 690 112 660 170 b 724 389 674 243 724 312 b 308 783 724 653 308 629 b 420 875 308 847 365 875 b 552 786 478 875 532 842 l 697 868 m 368 332 b 250 450 315 355 250 382 b 330 547 250 504 286 526 l 453 489 b 566 366 505 459 566 436 b 502 269 566 329 535 287 l 368 332 "},"Ý":{"x_min":-19.4375,"x_max":894.453125,"ha":875,"o":"m 350 0 l 525 0 l 525 420 l 894 982 l 686 982 l 441 591 l 200 982 l -19 982 l 350 420 l 350 0 m 371 1050 l 502 1050 l 698 1250 l 509 1250 l 371 1050 "},"b":{"x_min":94.4375,"x_max":813.890625,"ha":875,"o":"m 94 0 l 252 0 l 252 100 l 255 100 b 484 -16 304 19 391 -16 b 813 333 690 -16 813 136 b 491 683 813 530 681 683 b 265 582 366 683 300 625 l 261 582 l 261 1050 l 94 1050 l 94 0 m 647 333 b 451 133 647 229 573 133 b 255 333 329 133 255 229 b 451 533 255 437 329 533 b 647 333 573 533 647 437 "},"q":{"x_min":61.109375,"x_max":780.5625,"ha":875,"o":"m 780 667 l 622 667 l 622 566 l 619 566 b 390 683 570 647 483 683 b 61 333 184 683 61 530 b 383 -16 61 136 193 -16 b 609 84 508 -16 575 41 l 613 84 l 613 -316 l 780 -316 l 780 667 m 227 333 b 423 533 227 437 301 533 b 619 333 545 533 619 437 b 423 133 619 229 545 133 b 227 333 301 133 227 229 "},"Ö":{"x_min":56.9375,"x_max":1100,"ha":1157,"o":"m 56 487 b 576 -25 56 180 273 -25 b 1100 493 883 -19 1100 186 b 576 1008 1100 808 883 1014 b 56 487 273 1008 56 803 m 240 498 b 577 850 240 694 375 850 b 916 498 781 850 916 694 b 577 133 916 289 781 133 b 240 498 375 133 240 289 m 329 1150 b 434 1050 329 1097 373 1050 b 543 1150 495 1050 543 1093 b 434 1250 543 1207 495 1250 b 329 1150 373 1250 329 1203 m 615 1150 b 720 1050 615 1097 659 1050 b 829 1150 781 1050 829 1093 b 720 1250 829 1207 781 1250 b 615 1150 659 1250 615 1203 "},"ﬂ":{"x_min":16.671875,"x_max":750,"ha":824,"o":"m 154 0 l 320 0 l 320 525 l 475 525 l 475 667 l 320 667 l 320 787 b 427 925 320 861 334 925 b 497 915 451 925 473 921 l 508 1057 b 402 1067 473 1064 438 1067 b 154 761 195 1067 154 946 l 154 667 l 16 667 l 16 525 l 154 525 l 154 0 m 583 0 l 750 0 l 750 1050 l 583 1050 l 583 0 "},"z":{"x_min":46.78125,"x_max":621.78125,"ha":669,"o":"m 46 0 l 621 0 l 621 133 l 244 133 l 605 515 l 605 667 l 63 667 l 63 533 l 403 533 l 403 530 l 46 154 l 46 0 "},"™":{"x_min":55.5625,"x_max":1333.328125,"ha":1389,"o":"m 225 410 l 366 410 l 366 858 l 536 858 l 536 983 l 55 983 l 55 858 l 225 858 l 225 410 m 666 410 l 808 410 l 808 783 l 811 783 l 951 410 l 1048 410 l 1188 783 l 1191 783 l 1191 410 l 1333 410 l 1333 983 l 1136 983 l 1000 611 l 863 983 l 666 983 l 666 410 "},"ã":{"x_min":50.078125,"x_max":661,"ha":746,"o":"m 511 0 l 661 0 l 661 383 b 376 683 661 478 661 683 b 93 576 270 683 166 651 l 180 489 b 358 558 225 530 288 558 b 511 433 447 558 511 515 l 511 415 l 469 415 b 50 183 302 415 50 400 b 293 -16 50 51 169 -16 b 506 91 381 -16 459 16 l 511 91 l 511 0 m 501 261 b 333 108 501 168 447 108 b 216 195 279 108 216 134 b 466 298 216 291 374 298 l 501 298 l 501 261 m 209 789 b 273 849 219 819 236 849 b 473 796 318 849 398 796 b 629 972 577 796 613 883 l 537 972 b 473 914 527 942 511 914 b 273 965 429 914 348 965 b 118 789 169 965 133 878 l 209 789 "},"æ":{"x_min":50.078125,"x_max":1133.03125,"ha":1183,"o":"m 1133 329 b 812 684 1133 525 1028 684 b 597 586 716 685 649 645 b 376 685 542 656 454 688 b 93 578 270 685 166 653 l 180 490 b 358 560 225 532 288 560 b 508 400 456 560 508 497 l 372 400 b 50 184 166 400 50 343 b 293 -15 50 45 175 -15 b 561 102 404 -15 502 12 b 809 -17 608 35 697 -17 b 1102 116 930 -17 1028 21 l 987 198 b 809 108 945 146 891 108 b 647 283 738 108 642 174 l 1133 283 l 1133 329 m 331 109 b 216 195 287 109 216 131 b 424 283 216 269 333 283 l 508 283 l 508 266 b 331 109 508 188 444 109 m 649 400 b 810 558 655 492 719 558 b 971 400 908 558 966 494 l 649 400 "},"®":{"x_min":39.1875,"x_max":1072.515625,"ha":1111,"o":"m 357 226 l 490 226 l 490 434 l 522 434 l 646 226 l 791 226 l 653 441 b 775 608 711 450 775 511 b 530 768 775 739 655 768 l 357 768 l 357 226 m 489 660 l 554 660 b 641 601 587 660 641 657 b 554 543 641 544 587 543 l 489 543 l 489 660 m 39 491 b 555 -25 39 207 271 -25 b 1072 491 840 -25 1072 207 b 555 1008 1072 776 840 1008 b 39 491 271 1008 39 776 m 172 491 b 555 892 172 715 340 892 b 939 491 771 892 939 715 b 555 91 939 268 771 91 b 172 491 340 91 172 268 "},"É":{"x_min":109.71875,"x_max":786.109375,"ha":849,"o":"m 109 0 l 786 0 l 786 158 l 284 158 l 284 425 l 736 425 l 736 583 l 284 583 l 284 825 l 761 825 l 761 983 l 109 983 l 109 0 m 359 1050 l 489 1050 l 685 1250 l 496 1250 l 359 1050 "},"~":{"x_min":140,"x_max":784.4375,"ha":925,"o":"m 734 535 b 610 440 702 491 667 440 b 470 490 574 440 521 468 b 309 535 417 514 363 535 b 140 415 220 535 170 473 l 190 299 b 309 393 212 342 245 393 b 469 344 373 393 424 369 b 610 299 515 319 559 299 b 784 418 696 299 742 360 l 734 535 "},"³":{"x_min":37.5,"x_max":497.21875,"ha":535,"o":"m 202 650 l 234 650 b 355 585 295 650 355 648 b 266 518 355 536 316 518 b 180 587 216 518 188 544 l 37 557 b 266 393 63 439 152 393 b 497 571 391 393 497 451 b 376 710 497 639 452 700 l 376 712 b 486 842 447 725 486 776 b 270 1000 486 949 383 1000 b 43 842 162 1000 70 960 l 186 814 b 270 875 195 853 229 875 b 344 829 315 875 344 858 b 247 767 344 776 297 767 l 202 767 l 202 650 "},"¡":{"x_min":94.4375,"x_max":316.671875,"ha":411,"o":"m 122 -308 l 288 -308 l 288 368 l 122 368 l 122 -308 m 316 578 b 205 683 316 637 263 683 b 94 575 144 683 94 635 b 205 469 94 515 145 469 b 316 578 266 469 316 518 "},"[":{"x_min":91.671875,"x_max":358.328125,"ha":386,"o":"m 358 1017 l 91 1017 l 91 -216 l 358 -216 l 358 -108 l 233 -108 l 233 908 l 358 908 l 358 1017 "},"L":{"x_min":109.71875,"x_max":702.78125,"ha":721,"o":"m 109 0 l 702 0 l 702 158 l 284 158 l 284 983 l 109 983 l 109 0 "}," ":{"x_min":0,"x_max":0,"ha":411},"%":{"x_min":41.671875,"x_max":1218.0625,"ha":1260,"o":"m 701 241 b 959 -16 701 98 816 -16 b 1218 241 1102 -16 1218 98 b 959 500 1218 384 1102 500 b 701 241 816 500 701 384 m 1084 241 b 959 116 1084 172 1029 116 b 834 241 890 116 834 172 b 959 366 834 311 890 366 b 1084 241 1029 366 1084 311 m 41 742 b 300 483 41 598 156 483 b 558 742 443 483 558 598 b 300 1000 558 885 443 1000 b 41 742 156 1000 41 885 m 425 742 b 300 616 425 672 369 616 b 175 742 230 616 175 672 b 300 867 175 811 230 867 b 425 742 369 867 425 811 m 284 8 l 400 -44 l 977 975 l 862 1028 l 284 8 "},"P":{"x_min":109.71875,"x_max":802.78125,"ha":849,"o":"m 109 0 l 284 0 l 284 407 l 409 407 b 802 698 618 407 802 451 b 440 983 802 917 630 983 l 109 983 l 109 0 m 284 557 l 284 833 l 409 833 b 619 696 504 833 619 817 b 390 557 619 562 490 557 l 284 557 "},"À":{"x_min":0,"x_max":1003,"ha":1003,"o":"m 0 0 l 195 0 l 284 225 l 711 225 l 802 0 l 1003 0 l 578 983 l 427 983 l 0 0 m 344 375 l 498 775 l 649 375 l 344 375 m 428 1250 l 240 1250 l 435 1050 l 566 1050 l 428 1250 "},"_":{"x_min":0,"x_max":694.453125,"ha":694,"o":"m 694 -173 l 694 -104 l 0 -104 l 0 -173 l 694 -173 "},"ñ":{"x_min":94.4375,"x_max":702.78125,"ha":797,"o":"m 94 0 l 261 0 l 261 364 b 413 533 261 453 304 533 b 536 337 530 533 536 411 l 536 0 l 702 0 l 702 421 b 459 683 702 557 638 683 b 255 560 348 683 286 626 l 252 560 l 252 667 l 94 667 l 94 0 m 234 789 b 298 849 244 819 261 849 b 498 796 343 849 423 796 b 654 972 602 796 638 883 l 562 972 b 498 914 552 942 536 914 b 298 965 454 914 373 965 b 143 789 194 965 158 878 l 234 789 "},"+":{"x_min":86.109375,"x_max":838.890625,"ha":925,"o":"m 86 491 l 86 350 l 391 350 l 391 44 l 533 44 l 533 350 l 838 350 l 838 491 l 533 491 l 533 797 l 391 797 l 391 491 l 86 491 "},"‚":{"x_min":72,"x_max":339,"ha":411,"o":"m 72 -175 l 220 -175 l 339 191 l 169 191 l 72 -175 "},"½":{"x_min":44.984375,"x_max":1190.828125,"ha":1235,"o":"m 238 401 l 379 401 l 379 992 l 253 992 l 44 829 l 121 737 l 238 842 l 238 401 m 743 0 l 1190 0 l 1190 116 l 915 116 l 915 119 l 1110 269 b 1190 421 1163 309 1190 359 b 978 598 1190 539 1100 598 b 751 407 851 598 760 539 l 885 398 b 971 473 888 440 921 473 b 1049 419 1013 473 1049 458 b 992 343 1049 391 1017 365 l 743 132 l 743 0 m 258 8 l 374 -44 l 951 975 l 836 1028 l 258 8 "},"Æ":{"x_min":-8.328125,"x_max":1326.390625,"ha":1389,"o":"m 734 0 l 1326 0 l 1326 158 l 909 158 l 909 425 l 1284 425 l 1284 583 l 909 583 l 909 825 l 1309 825 l 1309 983 l 620 983 l -8 0 l 204 0 l 362 258 l 734 258 l 734 0 m 454 408 l 713 825 l 734 825 l 734 408 l 454 408 "},"Ë":{"x_min":109.71875,"x_max":786.109375,"ha":849,"o":"m 109 0 l 786 0 l 786 158 l 284 158 l 284 425 l 736 425 l 736 583 l 284 583 l 284 825 l 761 825 l 761 983 l 109 983 l 109 0 m 175 1150 b 280 1050 175 1097 219 1050 b 388 1150 341 1050 388 1093 b 280 1250 388 1207 341 1250 b 175 1150 219 1250 175 1203 m 461 1150 b 566 1050 461 1097 505 1050 b 675 1150 627 1050 675 1093 b 566 1250 675 1207 627 1250 b 461 1150 505 1250 461 1203 "},"'":{"x_min":134.71875,"x_max":276.390625,"ha":411,"o":"m 134 616 l 276 616 l 276 983 l 134 983 l 134 616 "},"Š":{"x_min":43.0625,"x_max":725.015625,"ha":797,"o":"m 719 907 b 437 1008 643 979 540 1008 b 75 711 255 1008 75 914 b 541 268 75 359 541 483 b 369 133 541 177 450 133 b 175 236 291 133 218 170 l 43 108 b 365 -25 123 12 243 -25 b 725 289 558 -25 725 77 b 258 723 725 639 258 526 b 419 850 258 814 338 850 b 591 772 487 850 554 825 l 719 907 m 147 1250 l 305 1050 l 490 1050 l 649 1250 l 497 1250 l 401 1125 l 305 1250 l 147 1250 "},"ª":{"x_min":39.078125,"x_max":446.03125,"ha":485,"o":"m 337 598 l 446 598 l 446 833 b 258 1000 446 946 391 1000 b 66 937 184 1000 115 981 l 126 864 b 241 908 159 892 196 908 b 337 862 296 908 337 894 l 337 851 l 314 851 b 39 712 204 851 39 843 b 191 590 39 611 144 590 b 334 653 244 590 307 607 l 337 653 l 337 598 m 332 768 l 332 760 b 225 673 332 710 304 673 b 155 717 190 673 155 689 b 293 768 155 764 247 768 l 332 768 "},"Œ":{"x_min":69.4375,"x_max":1319.453125,"ha":1389,"o":"m 895 825 l 1295 825 l 1295 983 l 629 983 b 69 491 275 983 69 772 b 629 0 69 214 275 0 l 1319 0 l 1319 158 l 895 158 l 895 425 l 1270 425 l 1270 583 l 895 583 l 895 825 m 720 158 l 633 158 b 261 491 505 158 261 222 b 633 825 261 761 505 825 l 720 825 l 720 158 "},"˛":{"x_min":-1.390625,"x_max":280.5625,"ha":361,"o":"m 245 -204 b 170 -233 226 -220 197 -233 b 106 -169 136 -233 106 -204 b 222 8 106 -108 179 -29 l 137 8 b -1 -201 77 -37 -1 -122 b 141 -325 -1 -282 68 -325 b 280 -272 193 -325 241 -302 l 245 -204 "},"ð":{"x_min":61.203125,"x_max":786.28125,"ha":847,"o":"m 614 1067 l 459 996 b 341 1100 439 1015 391 1061 l 202 1019 b 309 929 230 996 284 955 l 161 860 l 244 781 l 391 848 l 396 844 b 571 634 461 778 523 710 l 568 631 b 409 683 527 670 471 683 b 61 333 222 683 61 543 b 423 -16 61 124 222 -16 b 786 385 662 -16 786 153 b 540 914 786 593 673 768 l 702 989 l 614 1067 m 423 133 b 227 333 301 133 227 229 b 423 533 227 438 301 533 b 619 333 546 533 619 438 b 423 133 619 229 546 133 "},"T":{"x_min":9.71875,"x_max":787.5,"ha":797,"o":"m 311 0 l 486 0 l 486 825 l 787 825 l 787 983 l 9 983 l 9 825 l 311 825 l 311 0 "},"š":{"x_min":34.734375,"x_max":581.953125,"ha":617,"o":"m 561 581 b 323 683 506 655 412 683 b 55 467 188 683 55 616 b 415 184 55 213 415 322 b 304 108 415 131 352 108 b 145 190 233 108 188 142 l 34 85 b 294 -16 102 9 191 -16 b 581 197 430 -16 581 38 b 222 478 581 456 222 359 b 319 549 222 529 275 549 b 450 481 376 549 418 526 l 561 581 m 56 983 l 215 783 l 399 783 l 559 983 l 406 983 l 311 858 l 215 983 l 56 983 "},"Þ":{"x_min":109.71875,"x_max":802.78125,"ha":849,"o":"m 109 0 l 284 0 l 284 216 l 409 216 b 802 508 618 216 802 261 b 440 793 802 726 630 793 l 284 793 l 284 983 l 109 983 l 109 0 m 284 366 l 284 643 l 409 643 b 619 505 504 643 619 626 b 390 366 619 372 490 366 l 284 366 "},"j":{"x_min":-51.390625,"x_max":287.5,"ha":361,"o":"m 97 667 l 97 -41 b 13 -183 97 -102 97 -183 b -38 -176 -4 -183 -20 -180 l -51 -320 b 38 -333 -22 -330 8 -333 b 263 -40 229 -333 263 -207 l 263 667 l 97 667 m 73 893 b 179 793 73 840 118 793 b 287 893 240 793 287 836 b 179 993 287 950 240 993 b 73 893 118 993 73 946 "},"1":{"x_min":90.28125,"x_max":538.890625,"ha":822,"o":"m 372 0 l 538 0 l 538 983 l 387 983 l 90 736 l 187 621 l 372 792 l 372 0 "},"›":{"x_min":53,"x_max":370,"ha":411,"o":"m 54 101 l 158 31 l 370 342 l 158 656 l 53 585 l 214 342 l 54 101 "},"ı":{"x_min":97.21875,"x_max":263.890625,"ha":361,"o":"m 97 0 l 263 0 l 263 667 l 97 667 l 97 0 "},"ä":{"x_min":50.078125,"x_max":661.203125,"ha":746,"o":"m 511 0 l 661 0 l 661 383 b 376 683 661 478 661 683 b 93 576 270 683 166 651 l 180 489 b 358 558 225 530 288 558 b 511 433 447 558 511 515 l 511 415 l 469 415 b 50 183 302 415 50 400 b 293 -16 50 51 169 -16 b 507 91 382 -16 459 16 l 511 91 l 511 0 m 501 261 b 333 108 501 168 447 108 b 216 195 279 108 216 134 b 466 298 216 291 375 298 l 501 298 l 501 261 m 123 883 b 229 783 123 830 168 783 b 337 883 290 783 337 826 b 229 983 337 940 290 983 b 123 883 168 983 123 936 m 409 883 b 515 783 409 830 454 783 b 623 883 576 783 623 826 b 515 983 623 940 576 983 b 409 883 454 983 409 936 "},"<":{"x_min":111.078125,"x_max":813.84375,"ha":925,"o":"m 813 58 l 813 210 l 344 420 l 813 630 l 813 783 l 111 470 l 111 370 l 813 58 "},"£":{"x_min":91.671875,"x_max":820.828125,"ha":822,"o":"m 91 0 l 751 0 l 751 133 l 400 133 l 400 437 l 625 437 l 625 554 l 400 554 l 400 679 b 561 850 400 767 458 850 b 708 790 619 850 668 828 l 820 911 b 555 1000 752 972 654 1000 b 233 693 326 1000 233 830 l 233 554 l 91 554 l 91 437 l 233 437 l 233 133 l 91 133 l 91 0 "},"¹":{"x_min":55.5625,"x_max":390.28125,"ha":535,"o":"m 248 401 l 390 401 l 390 992 l 263 992 l 55 829 l 131 737 l 248 842 l 248 401 "},"t":{"x_min":16.671875,"x_max":504.171875,"ha":540,"o":"m 154 525 l 154 219 b 372 -16 154 62 195 -16 b 504 5 411 -16 469 -11 l 504 145 b 413 125 483 130 443 125 b 320 233 340 125 320 166 l 320 525 l 504 525 l 504 667 l 320 667 l 320 860 l 154 860 l 154 667 l 16 667 l 16 525 l 154 525 "},"¬":{"x_min":86.109375,"x_max":838.890625,"ha":925,"o":"m 697 204 l 838 204 l 838 616 l 86 616 l 86 475 l 697 475 l 697 204 "},"ù":{"x_min":93.9375,"x_max":702.28125,"ha":797,"o":"m 702 667 l 535 667 l 535 302 b 382 133 535 214 492 133 b 260 329 266 133 260 255 l 260 667 l 93 667 l 93 245 b 337 -16 93 109 157 -16 b 541 107 448 -16 510 40 l 543 107 l 543 0 l 702 0 l 702 667 m 325 983 l 137 983 l 332 783 l 463 783 l 325 983 "},"W":{"x_min":0.5,"x_max":1363,"ha":1363,"o":"m 290 0 l 451 0 l 679 748 l 682 748 l 910 0 l 1076 0 l 1363 983 l 1185 983 l 992 275 l 989 275 l 772 983 l 600 983 l 379 275 l 376 275 l 192 983 l 0 983 l 290 0 "},"ï":{"x_min":-69.4375,"x_max":430.5625,"ha":361,"o":"m 97 0 l 263 0 l 263 667 l 97 667 l 97 0 m -69 883 b 36 783 -69 830 -25 783 b 144 883 97 783 144 826 b 36 983 144 940 97 983 b -69 883 -25 983 -69 936 m 216 883 b 322 783 216 830 261 783 b 430 883 383 783 430 826 b 322 983 430 940 383 983 b 216 883 261 983 216 936 "},">":{"x_min":111.15625,"x_max":813.921875,"ha":925,"o":"m 111 783 l 111 630 l 580 420 l 111 210 l 111 58 l 813 370 l 813 470 l 111 783 "},"v":{"x_min":4.5,"x_max":717,"ha":721,"o":"m 276 0 l 454 0 l 717 667 l 546 667 l 367 200 l 364 200 l 186 667 l 4 667 l 276 0 "},"û":{"x_min":94.609375,"x_max":703.90625,"ha":797,"o":"m 703 667 l 537 667 l 537 302 b 383 133 537 214 493 133 b 261 329 267 133 261 255 l 261 667 l 94 667 l 94 245 b 338 -16 94 109 158 -16 b 542 107 449 -16 511 40 l 545 107 l 545 0 l 703 0 l 703 667 m 652 783 l 493 983 l 306 983 l 146 783 l 301 783 l 397 908 l 493 783 l 652 783 "},"Ò":{"x_min":56.890625,"x_max":1099.953125,"ha":1157,"o":"m 56 487 b 576 -25 56 180 273 -25 b 1099 493 883 -19 1099 186 b 576 1008 1099 808 883 1014 b 56 487 273 1008 56 803 m 240 498 b 577 850 240 694 374 850 b 916 498 781 850 916 694 b 577 133 916 289 781 133 b 240 498 374 133 240 289 m 506 1250 l 318 1250 l 513 1050 l 644 1050 l 506 1250 "},"&":{"x_min":67.21875,"x_max":1010.046875,"ha":1029,"o":"m 994 516 l 798 516 l 689 350 l 530 520 b 726 775 628 570 726 654 b 449 1008 726 936 596 1008 b 167 766 300 1008 167 928 b 279 540 167 669 217 609 b 67 263 161 494 67 395 b 400 -25 67 76 226 -25 b 690 112 525 -25 611 19 l 794 0 l 1010 0 l 797 231 l 994 516 m 451 858 b 560 766 511 858 560 819 b 426 616 560 694 483 647 b 333 759 383 657 333 708 b 451 858 333 818 387 858 m 586 222 b 406 125 536 173 482 125 b 250 273 322 125 250 187 b 385 441 250 358 319 402 l 586 222 "},"˝":{"x_min":-28,"x_max":583,"ha":361,"o":"m -28 783 l 102 783 l 298 983 l 109 983 l -28 783 m 256 783 l 387 783 l 583 983 l 394 983 l 256 783 "},"Ð":{"x_min":18.0625,"x_max":997.21875,"ha":1054,"o":"m 109 0 l 476 0 b 997 491 712 0 997 155 b 497 983 997 825 755 983 l 109 983 l 109 566 l 18 566 l 18 450 l 109 450 l 109 0 m 284 158 l 284 450 l 584 450 l 584 566 l 284 566 l 284 825 l 444 825 b 813 491 658 825 813 730 b 415 158 813 252 634 158 l 284 158 "},"I":{"x_min":105.5625,"x_max":280.5625,"ha":386,"o":"m 105 0 l 280 0 l 280 983 l 105 983 l 105 0 "},"G":{"x_min":56.609375,"x_max":983,"ha":1081,"o":"m 983 575 l 606 575 l 606 416 l 808 416 l 808 184 b 577 133 746 150 666 133 b 239 498 374 133 239 289 b 577 850 239 694 374 850 b 834 754 676 850 771 815 l 963 885 b 576 1008 860 976 726 1008 b 56 487 273 1008 56 803 b 576 -25 56 180 273 -25 b 983 72 727 -25 863 8 l 983 575 "},"`":{"x_min":-81,"x_max":245.390625,"ha":361,"o":"m 107 983 l -81 983 l 114 783 l 245 783 l 107 983 "},"·":{"x_min":94.4375,"x_max":316.671875,"ha":411,"o":"m 94 404 b 205 298 94 344 147 298 b 316 407 266 298 316 347 b 205 512 316 466 265 512 b 94 404 144 512 94 464 "},"r":{"x_min":94.4375,"x_max":520.828125,"ha":540,"o":"m 94 0 l 261 0 l 261 357 b 440 525 261 393 283 525 b 520 512 466 525 493 519 l 520 673 b 461 683 501 679 481 683 b 263 561 373 683 300 637 l 261 561 l 261 667 l 94 667 l 94 0 "},"¿":{"x_min":37.5,"x_max":654.171875,"ha":721,"o":"m 262 384 l 262 332 b 188 193 262 259 240 241 b 37 -62 108 116 37 58 b 330 -333 37 -237 165 -333 b 654 -52 506 -333 633 -229 l 476 -38 b 337 -175 469 -113 415 -175 b 212 -52 265 -175 212 -125 b 247 37 212 -18 223 13 l 354 145 b 429 308 411 204 429 225 l 429 384 l 262 384 m 456 578 b 345 683 456 637 404 683 b 234 575 284 683 234 635 b 345 469 234 515 286 469 b 456 578 406 469 456 518 "},"ý":{"x_min":4,"x_max":717,"ha":721,"o":"m 288 -5 l 256 -84 b 124 -183 229 -154 206 -183 b 40 -166 95 -183 66 -176 l 19 -316 b 147 -333 60 -327 104 -333 b 401 -143 294 -333 352 -268 l 717 667 l 543 667 l 376 204 l 373 204 l 187 667 l 4 667 l 288 -5 m 295 783 l 425 783 l 621 983 l 432 983 l 295 783 "},"x":{"x_min":-1,"x_max":748,"ha":746,"o":"m -1 0 l 196 0 l 371 239 l 545 0 l 748 0 l 479 358 l 707 667 l 517 667 l 372 467 l 239 667 l 36 667 l 267 358 l -1 0 "},"è":{"x_min":60.609375,"x_max":735.953125,"ha":797,"o":"m 735 275 l 735 320 b 423 683 735 553 609 683 b 60 333 221 683 60 543 b 423 -16 60 123 221 -16 b 705 116 528 -16 627 20 l 585 207 b 406 116 544 155 489 116 b 227 275 313 116 238 176 l 735 275 m 227 400 b 399 558 239 496 300 558 b 569 400 503 558 567 497 l 227 400 m 325 983 l 137 983 l 332 783 l 463 783 l 325 983 "},"º":{"x_min":43,"x_max":508.328125,"ha":551,"o":"m 273 590 b 508 794 404 590 508 673 b 273 1000 508 917 404 1000 b 43 794 144 1000 43 917 b 273 590 40 673 144 590 m 273 690 b 156 794 195 690 156 747 b 273 900 156 843 195 900 b 391 794 351 900 391 843 b 273 690 391 747 351 690 "},"Ø":{"x_min":56.984375,"x_max":1100.234375,"ha":1157,"o":"m 304 273 b 240 498 263 334 240 412 b 577 849 240 694 374 849 b 776 787 654 849 720 827 l 304 273 m 841 723 b 916 498 890 665 916 585 b 577 133 916 288 782 133 b 366 205 494 133 423 159 l 841 723 m 1016 1048 l 896 917 b 576 1008 808 977 700 1011 b 56 487 273 1008 56 802 b 181 140 56 347 102 228 l 61 9 l 130 -50 l 248 77 b 576 -25 334 12 448 -25 b 1100 492 883 -19 1100 185 b 965 858 1100 642 1051 767 l 1084 988 l 1016 1048 "},"μ":{"x_min":94.4375,"x_max":702.78125,"ha":797,"o":"m 94 666 l 94 -317 l 261 -317 l 261 -7 b 337 -17 283 -14 308 -17 b 541 106 448 -17 511 39 l 544 106 l 544 0 l 702 0 l 702 666 l 536 666 l 536 302 b 383 133 536 213 493 133 b 261 329 266 133 261 255 l 261 666 l 94 666 "},"÷":{"x_min":86.109375,"x_max":838.890625,"ha":925,"o":"m 86 491 l 86 350 l 838 350 l 838 491 l 86 491 m 358 671 b 462 566 358 614 405 566 b 566 671 519 566 566 614 b 462 775 566 728 519 775 b 358 671 405 775 358 728 m 358 170 b 462 66 358 113 405 66 b 566 170 519 66 566 113 b 462 275 566 227 519 275 b 358 170 405 275 358 227 "},"h":{"x_min":94.4375,"x_max":702.78125,"ha":797,"o":"m 261 1050 l 94 1050 l 94 0 l 261 0 l 261 364 b 413 533 261 453 304 533 b 536 337 530 533 536 411 l 536 0 l 702 0 l 702 421 b 459 683 702 557 638 683 b 263 573 356 683 290 629 l 261 573 l 261 1050 "},".":{"x_min":94.4375,"x_max":316.671875,"ha":411,"o":"m 94 97 b 205 -8 94 37 147 -8 b 316 100 266 -8 316 40 b 205 205 316 159 265 205 b 94 97 144 205 94 157 "},";":{"x_min":52.78125,"x_max":319.4375,"ha":411,"o":"m 52 -175 l 201 -175 l 319 191 l 150 191 l 52 -175 m 94 568 b 205 462 94 508 147 462 b 316 571 266 462 316 511 b 205 676 316 630 265 676 b 94 568 144 676 94 628 "},"f":{"x_min":16.671875,"x_max":508.328125,"ha":489,"o":"m 154 0 l 320 0 l 320 525 l 475 525 l 475 667 l 320 667 l 320 787 b 427 925 320 861 334 925 b 497 915 451 925 473 921 l 508 1057 b 402 1067 473 1064 438 1067 b 154 761 195 1067 154 946 l 154 667 l 16 667 l 16 525 l 154 525 l 154 0 "},"“":{"x_min":81,"x_max":641,"ha":721,"o":"m 348 983 l 199 983 l 81 616 l 250 616 l 348 983 m 641 983 l 492 983 l 374 616 l 543 616 l 641 983 "},"A":{"x_min":0,"x_max":1003,"ha":1003,"o":"m 0 0 l 195 0 l 284 225 l 711 225 l 802 0 l 1003 0 l 579 983 l 427 983 l 0 0 m 344 375 l 498 775 l 650 375 l 344 375 "},"6":{"x_min":61.109375,"x_max":761.109375,"ha":822,"o":"m 404 983 l 152 587 b 61 317 98 501 61 420 b 411 -17 61 109 205 -17 b 761 319 612 -17 761 114 b 465 633 761 489 638 633 b 373 616 431 633 393 627 l 370 619 l 606 983 l 404 983 m 236 320 b 415 499 236 419 316 499 b 594 320 513 499 594 419 b 415 141 594 221 513 141 b 236 320 316 141 236 221 "},"‘":{"x_min":72,"x_max":339,"ha":411,"o":"m 339 983 l 190 983 l 72 616 l 241 616 l 339 983 "},"O":{"x_min":56.9375,"x_max":1100,"ha":1157,"o":"m 56 487 b 576 -25 56 180 273 -25 b 1100 493 883 -19 1100 186 b 576 1008 1100 808 883 1014 b 56 487 273 1008 56 803 m 240 498 b 577 850 240 694 375 850 b 916 498 781 850 916 694 b 577 133 916 289 781 133 b 240 498 375 133 240 289 "},"n":{"x_min":94.4375,"x_max":702.78125,"ha":797,"o":"m 94 0 l 261 0 l 261 364 b 413 533 261 453 304 533 b 536 337 530 533 536 411 l 536 0 l 702 0 l 702 421 b 459 683 702 557 638 683 b 255 560 348 683 286 626 l 252 560 l 252 667 l 94 667 l 94 0 "},"3":{"x_min":63.890625,"x_max":733.328125,"ha":822,"o":"m 308 437 l 348 437 b 566 287 450 437 566 415 b 401 133 566 195 490 133 b 241 261 312 133 262 180 l 63 214 b 401 -16 106 50 240 -16 b 733 273 576 -16 733 86 b 541 512 733 394 666 494 l 541 515 b 709 737 645 541 709 632 b 394 1000 709 911 563 1000 b 79 789 250 1000 122 935 l 255 742 b 402 850 279 810 336 850 b 543 721 484 850 543 796 b 351 587 543 601 447 587 l 308 587 l 308 437 "},"9":{"x_min":61.109375,"x_max":761.109375,"ha":822,"o":"m 418 0 l 669 395 b 761 665 723 481 761 562 b 411 1000 761 873 616 1000 b 61 664 209 1000 61 868 b 356 349 61 493 183 349 b 448 366 390 349 429 355 l 451 363 l 215 0 l 418 0 m 586 662 b 406 483 586 563 505 483 b 227 662 308 483 227 563 b 406 841 227 761 308 841 b 586 662 505 841 586 761 "},"l":{"x_min":97.21875,"x_max":263.890625,"ha":361,"o":"m 97 0 l 263 0 l 263 1050 l 97 1050 l 97 0 "},"¤":{"x_min":50,"x_max":772,"ha":822,"o":"m 133 132 l 201 200 b 411 132 262 155 333 132 b 620 200 490 132 562 157 l 688 132 l 772 215 l 704 283 b 772 493 747 343 772 415 b 704 702 772 571 748 641 l 772 771 l 688 853 l 620 786 b 411 853 562 828 490 853 b 201 786 331 853 259 828 l 133 853 l 50 771 l 117 702 b 50 493 74 643 50 571 b 117 283 50 414 74 341 l 50 215 l 133 132 m 208 493 b 411 702 208 621 287 702 b 613 493 534 702 613 621 b 411 282 613 365 534 282 b 208 493 287 282 208 365 "},"4":{"x_min":46.5625,"x_max":774.328125,"ha":822,"o":"m 464 0 l 631 0 l 631 200 l 774 200 l 774 350 l 631 350 l 631 983 l 442 983 l 46 365 l 46 200 l 464 200 l 464 0 m 464 350 l 216 350 l 461 747 l 464 747 l 464 350 "},"p":{"x_min":94.4375,"x_max":813.890625,"ha":875,"o":"m 94 -316 l 261 -316 l 261 84 l 265 84 b 491 -16 300 41 366 -16 b 813 333 681 -16 813 136 b 484 683 813 530 690 683 b 255 566 391 683 304 647 l 252 566 l 252 667 l 94 667 l 94 -316 m 647 333 b 451 133 647 229 573 133 b 255 333 329 133 255 229 b 451 533 255 437 329 533 b 647 333 573 533 647 437 "},"‡":{"x_min":65.28125,"x_max":758.328125,"ha":824,"o":"m 490 983 l 331 983 l 331 726 l 65 726 l 65 593 l 331 593 l 331 216 l 65 216 l 65 83 l 331 83 l 331 -175 l 490 -175 l 490 83 l 758 83 l 758 216 l 490 216 l 490 593 l 758 593 l 758 726 l 490 726 l 490 983 "},"à":{"x_min":50.078125,"x_max":660.609375,"ha":746,"o":"m 510 0 l 660 0 l 660 383 b 376 683 660 478 660 683 b 93 576 270 683 166 651 l 180 489 b 357 558 224 530 288 558 b 510 433 446 558 510 515 l 510 415 l 468 415 b 50 183 302 415 50 400 b 292 -16 50 51 169 -16 b 506 91 381 -16 459 16 l 510 91 l 510 0 m 500 261 b 332 108 500 168 446 108 b 216 195 278 108 216 134 b 466 298 216 291 374 298 l 500 298 l 500 261 m 300 983 l 112 983 l 307 783 l 438 783 l 300 983 "},"Ü":{"x_min":105.5625,"x_max":897.21875,"ha":1003,"o":"m 897 983 l 722 983 l 722 366 b 501 141 722 269 669 141 b 280 366 333 141 280 269 l 280 983 l 105 983 l 105 361 b 501 -25 105 123 276 -25 b 897 361 726 -25 897 123 l 897 983 m 251 1150 b 356 1050 251 1097 295 1050 b 465 1150 418 1050 465 1093 b 356 1250 465 1207 418 1250 b 251 1150 295 1250 251 1203 m 537 1150 b 643 1050 537 1097 581 1050 b 751 1150 704 1050 751 1093 b 643 1250 751 1207 704 1250 b 537 1150 581 1250 537 1203 "},"ó":{"x_min":61.109375,"x_max":786.109375,"ha":847,"o":"m 61 333 b 423 -16 61 123 222 -16 b 786 333 625 -16 786 123 b 423 683 786 543 625 683 b 61 333 222 683 61 543 m 227 333 b 423 533 227 437 301 533 b 619 333 545 533 619 437 b 423 133 619 229 545 133 b 227 333 301 133 227 229 m 357 783 l 488 783 l 684 983 l 495 983 l 357 783 "}}}
